<svg xmlns="http://www.w3.org/2000/svg" x="0px" y="0px"
width="30" height="30"
viewBox="0 0 172 172"
style=" fill:#000000;"><g fill="none" fill-rule="nonzero" stroke="none" stroke-width="1" stroke-linecap="butt" stroke-linejoin="miter" stroke-miterlimit="10" stroke-dasharray="" stroke-dashoffset="0" font-family="none" font-weight="none" font-size="none" text-anchor="none" style="mix-blend-mode: normal"><path d="M0,172v-172h172v172z" fill="none"></path><path d="M0,172v-172h172v172zM168.56,168.56v-165.12h-165.12v165.12z" fill="#cccccc"></path><g fill="#000000"><path d="M156.4512,-6.4672h-140.9024c-12.15283,0 -22.016,9.86317 -22.016,22.016v140.9024c0,12.15283 9.86317,22.016 22.016,22.016h140.9024c12.15283,0 22.016,-9.86317 22.016,-22.016v-140.9024c0,-12.15283 -9.86317,-22.016 -22.016,-22.016zM128.75507,122.50253l-6.25254,6.25254l-36.50253,-36.50253l-36.50253,36.50253l-6.25254,-6.25254l36.50253,-36.50253l-36.50253,-36.50253l6.25254,-6.25254l36.50253,36.50253l36.50253,-36.50253l6.25254,6.25254l-36.50253,36.50253z"></path></g><path d="M0,172v-172h172v172z" fill="none"></path><path d="M3.44,168.56v-165.12h165.12v165.12z" fill="none"></path><path d="M0,172v-172h172v172z" fill="none"></path><path d="M3.44,168.56v-165.12h165.12v165.12z" fill="none"></path><path d="M0,172v-172h172v172z" fill="none"></path><path d="M3.44,168.56v-165.12h165.12v165.12z" fill="none"></path><path d="M0,172v-172h172v172z" fill="none"></path><path d="M3.44,168.56v-165.12h165.12v165.12z" fill="none"></path><path d="M0,172v-172h172v172z" fill="none"></path><path d="M3.44,168.56v-165.12h165.12v165.12z" fill="none"></path><path d="M0,172v-172h172v172z" fill="none"></path><path d="M3.44,168.56v-165.12h165.12v165.12z" fill="none"></path><path d="M0,172v-172h172v172z" fill="none"></path><path d="M3.44,168.56v-165.12h165.12v165.12z" fill="none"></path><path d="M0,172v-172h172v172z" fill="none"></path><path d="M3.44,168.56v-165.12h165.12v165.12z" fill="none"></path><path d="M0,172v-172h172v172z" fill="none"></path><path d="M3.44,168.56v-165.12h165.12v165.12z" fill="none"></path><path d="M0,172v-172h172v172z" fill="none"></path><path d="M3.44,168.56v-165.12h165.12v165.12z" fill="none"></path><path d="M0,172v-172h172v172z" fill="none"></path><path d="M3.44,168.56v-165.12h165.12v165.12z" fill="none"></path><path d="M0,172v-172h172v172z" fill="none"></path><path d="M3.44,168.56v-165.12h165.12v165.12z" fill="none"></path><path d="M0,172v-172h172v172z" fill="none"></path><path d="M3.44,168.56v-165.12h165.12v165.12z" fill="none"></path><path d="M0,172v-172h172v172z" fill="none"></path><path d="M3.44,168.56v-165.12h165.12v165.12z" fill="none"></path><path d="M0,172v-172h172v172z" fill="none"></path><path d="M3.44,168.56v-165.12h165.12v165.12z" fill="none"></path><path d="M0,172v-172h172v172z" fill="none"></path><path d="M3.44,168.56v-165.12h165.12v165.12z" fill="none"></path><path d="M0,172v-172h172v172z" fill="none"></path><path d="M3.44,168.56v-165.12h165.12v165.12z" fill="none"></path><path d="M0,172v-172h172v172z" fill="none"></path><path d="M3.44,168.56v-165.12h165.12v165.12z" fill="none"></path><path d="M0,172v-172h172v172z" fill="none"></path><path d="M3.44,168.56v-165.12h165.12v165.12z" fill="none"></path><path d="M0,172v-172h172v172z" fill="none"></path><path d="M3.44,168.56v-165.12h165.12v165.12z" fill="none"></path><path d="M0,172v-172h172v172z" fill="none"></path><path d="M3.44,168.56v-165.12h165.12v165.12z" fill="none"></path><path d="M0,172v-172h172v172z" fill="none"></path><path d="M3.44,168.56v-165.12h165.12v165.12z" fill="none"></path><path d="M0,172v-172h172v172z" fill="none"></path><path d="M3.44,168.56v-165.12h165.12v165.12z" fill="none"></path><path d="M0,172v-172h172v172z" fill="none"></path><path d="M3.44,168.56v-165.12h165.12v165.12z" fill="none"></path><path d="M0,172v-172h172v172z" fill="none"></path><path d="M3.44,168.56v-165.12h165.12v165.12z" fill="none"></path><path d="M0,172v-172h172v172z" fill="none"></path><path d="M3.44,168.56v-165.12h165.12v165.12z" fill="none"></path><path d="M0,172v-172h172v172z" fill="none"></path><path d="M3.44,168.56v-165.12h165.12v165.12z" fill="none"></path><path d="M0,172v-172h172v172z" fill="none"></path><path d="M3.44,168.56v-165.12h165.12v165.12z" fill="none"></path><path d="M0,172v-172h172v172z" fill="none"></path><path d="M3.44,168.56v-165.12h165.12v165.12z" fill="none"></path><path d="M0,172v-172h172v172z" fill="none"></path><path d="M3.44,168.56v-165.12h165.12v165.12z" fill="none"></path><path d="M0,172v-172h172v172z" fill="none"></path><path d="M3.44,168.56v-165.12h165.12v165.12z" fill="none"></path><path d="M0,172v-172h172v172z" fill="none"></path><path d="M3.44,168.56v-165.12h165.12v165.12z" fill="none"></path><path d="M0,172v-172h172v172z" fill="none"></path><path d="M3.44,168.56v-165.12h165.12v165.12z" fill="none"></path><path d="M0,172v-172h172v172z" fill="none"></path><path d="M3.44,168.56v-165.12h165.12v165.12z" fill="none"></path><path d="M0,172v-172h172v172z" fill="none"></path><path d="M6.88,165.12v-158.24h158.24v158.24z" fill="none"></path><path d="M0,172v-172h172v172z" fill="none"></path><path d="M13.76,158.24v-144.48h144.48v144.48z" fill="none"></path><path d="M0,172v-172h172v172z" fill="none"></path><path d="M17.2,154.8v-137.6h137.6v137.6z" fill="none"></path><path d="M0,172v-172h172v172z" fill="none"></path><path d="M20.64,151.36v-130.72h130.72v130.72z" fill="none"></path><path d="M0,172v-172h172v172z" fill="none"></path><path d="M24.08,147.92v-123.84h123.84v123.84z" fill="none"></path><path d="M0,172v-172h172v172z" fill="none"></path><path d="M27.52,144.48v-116.96h116.96v116.96z" fill="none"></path><path d="M0,172v-172h172v172z" fill="none"></path><path d="M30.96,141.04v-110.08h110.08v110.08z" fill="none"></path><path d="M0,172v-172h172v172z" fill="none"></path><path d="M34.4,137.6v-103.2h103.2v103.2z" fill="none"></path><path d="M0,172v-172h172v172z" fill="none"></path><path d="M30.96,141.04v-110.08h110.08v110.08z" fill="none"></path><path d="M0,172v-172h172v172z" fill="none"></path><path d="M24.08,147.92v-123.84h123.84v123.84z" fill="none"></path><path d="M0,172v-172h172v172z" fill="none"></path><path d="M17.2,154.8v-137.6h137.6v137.6z" fill="none"></path><path d="M0,172v-172h172v172z" fill="none"></path><path d="M13.76,158.24v-144.48h144.48v144.48z" fill="none"></path><path d="M0,172v-172h172v172z" fill="none"></path><path d="M10.32,161.68v-151.36h151.36v151.36z" fill="none"></path><path d="M0,172v-172h172v172z" fill="none"></path><path d="M6.88,165.12v-158.24h158.24v158.24z" fill="none"></path><path d="M0,172v-172h172v172z" fill="none"></path><path d="M3.44,168.56v-165.12h165.12v165.12z" fill="none"></path><path d="M5.16,172c-2.84979,0 -5.16,-2.31021 -5.16,-5.16v-161.68c0,-2.84979 2.31021,-5.16 5.16,-5.16h161.68c2.84979,0 5.16,2.31021 5.16,5.16v161.68c0,2.84979 -2.31021,5.16 -5.16,5.16z" fill="none"></path><path d="M8.6,168.56c-2.84979,0 -5.16,-2.31021 -5.16,-5.16v-154.8c0,-2.84979 2.31021,-5.16 5.16,-5.16h154.8c2.84979,0 5.16,2.31021 5.16,5.16v154.8c0,2.84979 -2.31021,5.16 -5.16,5.16z" fill="none"></path><path d="M6.88,172c-3.79972,0 -6.88,-3.08028 -6.88,-6.88v-158.24c0,-3.79972 3.08028,-6.88 6.88,-6.88h158.24c3.79972,0 6.88,3.08028 6.88,6.88v158.24c0,3.79972 -3.08028,6.88 -6.88,6.88z" fill="none"></path><path d="M10.32,168.56c-3.79972,0 -6.88,-3.08028 -6.88,-6.88v-151.36c0,-3.79972 3.08028,-6.88 6.88,-6.88h151.36c3.79972,0 6.88,3.08028 6.88,6.88v151.36c0,3.79972 -3.08028,6.88 -6.88,6.88z" fill="none"></path><path d="M18.92,172c-10.44923,0 -18.92,-8.47077 -18.92,-18.92v-134.16c0,-10.44923 8.47077,-18.92 18.92,-18.92h134.16c10.44923,0 18.92,8.47077 18.92,18.92v134.16c0,10.44923 -8.47077,18.92 -18.92,18.92z" fill="none"></path><path d="M22.36,168.56c-10.44923,0 -18.92,-8.47077 -18.92,-18.92v-127.28c0,-10.44923 8.47077,-18.92 18.92,-18.92h127.28c10.44923,0 18.92,8.47077 18.92,18.92v127.28c0,10.44923 -8.47077,18.92 -18.92,18.92z" fill="none"></path><path d="M36.12,172c-19.94853,0 -36.12,-16.17147 -36.12,-36.12v-99.76c0,-19.94853 16.17147,-36.12 36.12,-36.12h99.76c19.94853,0 36.12,16.17147 36.12,36.12v99.76c0,19.94853 -16.17147,36.12 -36.12,36.12z" fill="none"></path><path d="M39.56,168.56c-19.94853,0 -36.12,-16.17147 -36.12,-36.12v-92.88c0,-19.94853 16.17147,-36.12 36.12,-36.12h92.88c19.94853,0 36.12,16.17147 36.12,36.12v92.88c0,19.94853 -16.17147,36.12 -36.12,36.12z" fill="none"></path><path d="M46.44,172c-25.6481,0 -46.44,-20.7919 -46.44,-46.44v-79.12c0,-25.6481 20.7919,-46.44 46.44,-46.44h79.12c25.6481,0 46.44,20.7919 46.44,46.44v79.12c0,25.6481 -20.7919,46.44 -46.44,46.44z" fill="none"></path><path d="M49.88,168.56c-25.6481,0 -46.44,-20.7919 -46.44,-46.44v-72.24c0,-25.6481 20.7919,-46.44 46.44,-46.44h72.24c25.6481,0 46.44,20.7919 46.44,46.44v72.24c0,25.6481 -20.7919,46.44 -46.44,46.44z" fill="none"></path><path d="M60.2,172c-33.24754,0 -60.2,-26.95246 -60.2,-60.2v-51.6c0,-33.24754 26.95246,-60.2 60.2,-60.2h51.6c33.24754,0 60.2,26.95246 60.2,60.2v51.6c0,33.24754 -26.95246,60.2 -60.2,60.2z" fill="none"></path><path d="M63.64,168.56c-33.24754,0 -60.2,-26.95246 -60.2,-60.2v-44.72c0,-33.24754 26.95246,-60.2 60.2,-60.2h44.72c33.24754,0 60.2,26.95246 60.2,60.2v44.72c0,33.24754 -26.95246,60.2 -60.2,60.2z" fill="none"></path><path d="M65.36,172c-36.09733,0 -65.36,-29.26267 -65.36,-65.36v-41.28c0,-36.09733 29.26267,-65.36 65.36,-65.36h41.28c36.09733,0 65.36,29.26267 65.36,65.36v41.28c0,36.09733 -29.26267,65.36 -65.36,65.36z" fill="none"></path><path d="M68.8,168.56c-36.09733,0 -65.36,-29.26267 -65.36,-65.36v-34.4c0,-36.09733 29.26267,-65.36 65.36,-65.36h34.4c36.09733,0 65.36,29.26267 65.36,65.36v34.4c0,36.09733 -29.26267,65.36 -65.36,65.36z" fill="none"></path><path d="M67.94,172c-37.52223,0 -67.94,-30.41777 -67.94,-67.94v-36.12c0,-37.52223 30.41777,-67.94 67.94,-67.94h36.12c37.52223,0 67.94,30.41777 67.94,67.94v36.12c0,37.52223 -30.41777,67.94 -67.94,67.94z" fill="none"></path><path d="M71.38,168.56c-37.52223,0 -67.94,-30.41777 -67.94,-67.94v-29.24c0,-37.52223 30.41777,-67.94 67.94,-67.94h29.24c37.52223,0 67.94,30.41777 67.94,67.94v29.24c0,37.52223 -30.41777,67.94 -67.94,67.94z" fill="none"></path><path d="M70.52,172c-38.94712,0 -70.52,-31.57288 -70.52,-70.52v-30.96c0,-38.94712 31.57288,-70.52 70.52,-70.52h30.96c38.94712,0 70.52,31.57288 70.52,70.52v30.96c0,38.94712 -31.57288,70.52 -70.52,70.52z" fill="none"></path><path d="M73.96,168.56c-38.94712,0 -70.52,-31.57288 -70.52,-70.52v-24.08c0,-38.94712 31.57288,-70.52 70.52,-70.52h24.08c38.94712,0 70.52,31.57288 70.52,70.52v24.08c0,38.94712 -31.57288,70.52 -70.52,70.52z" fill="none"></path><path d="M73.1,172c-40.37202,0 -73.1,-32.72798 -73.1,-73.1v-25.8c0,-40.37202 32.72798,-73.1 73.1,-73.1h25.8c40.37202,0 73.1,32.72798 73.1,73.1v25.8c0,40.37202 -32.72798,73.1 -73.1,73.1z" fill="none"></path><path d="M76.54,168.56c-40.37202,0 -73.1,-32.72798 -73.1,-73.1v-18.92c0,-40.37202 32.72798,-73.1 73.1,-73.1h18.92c40.37202,0 73.1,32.72798 73.1,73.1v18.92c0,40.37202 -32.72798,73.1 -73.1,73.1z" fill="none"></path><path d="M79.12,172c-43.69677,0 -79.12,-35.42323 -79.12,-79.12v-13.76c0,-43.69677 35.42323,-79.12 79.12,-79.12h13.76c43.69677,0 79.12,35.42323 79.12,79.12v13.76c0,43.69677 -35.42323,79.12 -79.12,79.12z" fill="none"></path><path d="M82.56,168.56c-43.69677,0 -79.12,-35.42323 -79.12,-79.12v-6.88c0,-43.69677 35.42323,-79.12 79.12,-79.12h6.88c43.69677,0 79.12,35.42323 79.12,79.12v6.88c0,43.69677 -35.42323,79.12 -79.12,79.12z" fill="none"></path><path d="M86,172c-47.49649,0 -86,-38.50351 -86,-86v0c0,-47.49649 38.50351,-86 86,-86v0c47.49649,0 86,38.50351 86,86v0c0,47.49649 -38.50351,86 -86,86z" fill="none"></path><path d="M86,168.56c-45.59663,0 -82.56,-36.96337 -82.56,-82.56v0c0,-45.59663 36.96337,-82.56 82.56,-82.56v0c45.59663,0 82.56,36.96337 82.56,82.56v0c0,45.59663 -36.96337,82.56 -82.56,82.56z" fill="none"></path><path d="M86,172c-47.49649,0 -86,-38.50351 -86,-86v0c0,-47.49649 38.50351,-86 86,-86v0c47.49649,0 86,38.50351 86,86v0c0,47.49649 -38.50351,86 -86,86z" fill="none"></path><path d="M86,165.12c-43.69677,0 -79.12,-35.42323 -79.12,-79.12v0c0,-43.69677 35.42323,-79.12 79.12,-79.12v0c43.69677,0 79.12,35.42323 79.12,79.12v0c0,43.69677 -35.42323,79.12 -79.12,79.12z" fill="none"></path><path d="M86,172c-47.49649,0 -86,-38.50351 -86,-86v0c0,-47.49649 38.50351,-86 86,-86v0c47.49649,0 86,38.50351 86,86v0c0,47.49649 -38.50351,86 -86,86z" fill="none"></path><path d="M86,158.24c-39.89705,0 -72.24,-32.34295 -72.24,-72.24v0c0,-39.89705 32.34295,-72.24 72.24,-72.24h0c39.89705,0 72.24,32.34295 72.24,72.24v0c0,39.89705 -32.34295,72.24 -72.24,72.24z" fill="none"></path><path d="M86,172c-47.49649,0 -86,-38.50351 -86,-86v0c0,-47.49649 38.50351,-86 86,-86v0c47.49649,0 86,38.50351 86,86v0c0,47.49649 -38.50351,86 -86,86z" fill="none"></path><path d="M86,151.36c-36.09733,0 -65.36,-29.26267 -65.36,-65.36v0c0,-36.09733 29.26267,-65.36 65.36,-65.36h0c36.09733,0 65.36,29.26267 65.36,65.36v0c0,36.09733 -29.26267,65.36 -65.36,65.36z" fill="none"></path><path d="M86,172c-47.49649,0 -86,-38.50351 -86,-86v0c0,-47.49649 38.50351,-86 86,-86v0c47.49649,0 86,38.50351 86,86v0c0,47.49649 -38.50351,86 -86,86z" fill="none"></path><path d="M86,147.92c-34.19747,0 -61.92,-27.72253 -61.92,-61.92v0c0,-34.19747 27.72253,-61.92 61.92,-61.92h0c34.19747,0 61.92,27.72253 61.92,61.92v0c0,34.19747 -27.72253,61.92 -61.92,61.92z" fill="none"></path><path d="M86,172c-47.49649,0 -86,-38.50351 -86,-86v0c0,-47.49649 38.50351,-86 86,-86v0c47.49649,0 86,38.50351 86,86v0c0,47.49649 -38.50351,86 -86,86z" fill="none"></path><path d="M86,144.48c-32.29761,0 -58.48,-26.18239 -58.48,-58.48v0c0,-32.29761 26.18239,-58.48 58.48,-58.48h0c32.29761,0 58.48,26.18239 58.48,58.48v0c0,32.29761 -26.18239,58.48 -58.48,58.48z" fill="none"></path><path d="M86,172c-47.49649,0 -86,-38.50351 -86,-86v0c0,-47.49649 38.50351,-86 86,-86v0c47.49649,0 86,38.50351 86,86v0c0,47.49649 -38.50351,86 -86,86z" fill="none"></path><path d="M86,141.04c-30.39775,0 -55.04,-24.64225 -55.04,-55.04v0c0,-30.39775 24.64225,-55.04 55.04,-55.04v0c30.39775,0 55.04,24.64225 55.04,55.04v0c0,30.39775 -24.64225,55.04 -55.04,55.04z" fill="none"></path><path d="M86,172c-47.49649,0 -86,-38.50351 -86,-86v0c0,-47.49649 38.50351,-86 86,-86v0c47.49649,0 86,38.50351 86,86v0c0,47.49649 -38.50351,86 -86,86z" fill="none"></path><path d="M86,137.6c-28.49789,0 -51.6,-23.10211 -51.6,-51.6v0c0,-28.49789 23.10211,-51.6 51.6,-51.6v0c28.49789,0 51.6,23.10211 51.6,51.6v0c0,28.49789 -23.10211,51.6 -51.6,51.6z" fill="none"></path><path d="M86,170.28c-46.54656,0 -84.28,-37.73344 -84.28,-84.28v0c0,-46.54656 37.73344,-84.28 84.28,-84.28v0c46.54656,0 84.28,37.73344 84.28,84.28v0c0,46.54656 -37.73344,84.28 -84.28,84.28z" fill="none"></path><path d="M86,135.88c-27.54796,0 -49.88,-22.33204 -49.88,-49.88v0c0,-27.54796 22.33204,-49.88 49.88,-49.88v0c27.54796,0 49.88,22.33204 49.88,49.88v0c0,27.54796 -22.33204,49.88 -49.88,49.88z" fill="none"></path><path d="M86,148.78c-34.67244,0 -62.78,-28.10756 -62.78,-62.78v0c0,-34.67244 28.10756,-62.78 62.78,-62.78v0c34.67244,0 62.78,28.10756 62.78,62.78v0c0,34.67244 -28.10756,62.78 -62.78,62.78z" fill="none"></path><path d="M86,114.38c-15.67384,0 -28.38,-12.70616 -28.38,-28.38v0c0,-15.67384 12.70616,-28.38 28.38,-28.38v0c15.67384,0 28.38,12.70616 28.38,28.38v0c0,15.67384 -12.70616,28.38 -28.38,28.38z" fill="none"></path><path d="M86,131.58c-25.17314,0 -45.58,-20.40686 -45.58,-45.58v0c0,-25.17314 20.40686,-45.58 45.58,-45.58h0c25.17314,0 45.58,20.40686 45.58,45.58v0c0,25.17314 -20.40686,45.58 -45.58,45.58z" fill="none"></path><path d="M86,97.18c-6.17454,0 -11.18,-5.00546 -11.18,-11.18v0c0,-6.17454 5.00546,-11.18 11.18,-11.18v0c6.17454,0 11.18,5.00546 11.18,11.18v0c0,6.17454 -5.00546,11.18 -11.18,11.18z" fill="none"></path><path d="M86,124.7c-21.37342,0 -38.7,-17.32658 -38.7,-38.7v0c0,-21.37342 17.32658,-38.7 38.7,-38.7v0c21.37342,0 38.7,17.32658 38.7,38.7v0c0,21.37342 -17.32658,38.7 -38.7,38.7z" fill="none"></path><path d="M86,90.3c-2.37482,0 -4.3,-1.92518 -4.3,-4.3v0c0,-2.37482 1.92518,-4.3 4.3,-4.3v0c2.37482,0 4.3,1.92518 4.3,4.3v0c0,2.37482 -1.92518,4.3 -4.3,4.3z" fill="none"></path><path d="M86,141.9c-30.87272,0 -55.9,-25.02728 -55.9,-55.9v0c0,-30.87272 25.02728,-55.9 55.9,-55.9v0c30.87272,0 55.9,25.02728 55.9,55.9v0c0,30.87272 -25.02728,55.9 -55.9,55.9z" fill="none"></path><path d="M86,107.5c-11.87412,0 -21.5,-9.62588 -21.5,-21.5v0c0,-11.87412 9.62588,-21.5 21.5,-21.5v0c11.87412,0 21.5,9.62588 21.5,21.5v0c0,11.87412 -9.62588,21.5 -21.5,21.5z" fill="none"></path><path d="M86,172c-47.49649,0 -86,-38.50351 -86,-86v0c0,-47.49649 38.50351,-86 86,-86v0c47.49649,0 86,38.50351 86,86v0c0,47.49649 -38.50351,86 -86,86z" fill="none"></path><path d="M86,137.6c-28.49789,0 -51.6,-23.10211 -51.6,-51.6v0c0,-28.49789 23.10211,-51.6 51.6,-51.6v0c28.49789,0 51.6,23.10211 51.6,51.6v0c0,28.49789 -23.10211,51.6 -51.6,51.6z" fill="none"></path><path d="M80.84,172c-44.6467,0 -80.84,-36.1933 -80.84,-80.84v-10.32c0,-44.6467 36.1933,-80.84 80.84,-80.84h10.32c44.6467,0 80.84,36.1933 80.84,80.84v10.32c0,44.6467 -36.1933,80.84 -80.84,80.84z" fill="none"></path><path d="M86,137.6c-28.49789,0 -51.6,-23.10211 -51.6,-51.6v0c0,-28.49789 23.10211,-51.6 51.6,-51.6v0c28.49789,0 51.6,23.10211 51.6,51.6v0c0,28.49789 -23.10211,51.6 -51.6,51.6z" fill="none"></path><path d="M18.06,172c-9.97426,0 -18.06,-8.08574 -18.06,-18.06v-135.88c0,-9.97426 8.08574,-18.06 18.06,-18.06h135.88c9.97426,0 18.06,8.08574 18.06,18.06v135.88c0,9.97426 -8.08574,18.06 -18.06,18.06z" fill="none"></path><path d="M52.46,137.6c-9.97426,0 -18.06,-8.08574 -18.06,-18.06v-67.08c0,-9.97426 8.08574,-18.06 18.06,-18.06h67.08c9.97426,0 18.06,8.08574 18.06,18.06v67.08c0,9.97426 -8.08574,18.06 -18.06,18.06z" fill="none"></path><path d="M0,172v-172h172v172z" fill="none"></path><path d="M34.4,137.6v-103.2h103.2v103.2z" fill="none"></path><path d="M0,172v-172h172v172z" fill="none"></path><path d="M30.96,141.04v-110.08h110.08v110.08z" fill="none"></path><path d="M0,172v-172h172v172z" fill="none"></path><path d="M13.76,158.24v-144.48h144.48v144.48z" fill="none"></path><path d="M0,172v-172h172v172z" fill="none"></path><path d="M10.32,161.68v-151.36h151.36v151.36z" fill="none"></path><path d="M0,172v-172h172v172z" fill="none"></path><path d="M6.88,165.12v-158.24h158.24v158.24z" fill="none"></path><path d="M0,172v-172h172v172z" fill="none"></path><path d="M3.44,168.56v-165.12h165.12v165.12z" fill="none"></path><path d="M0,172v-172h172v172z" fill="none"></path><path d="M3.44,168.56v-165.12h165.12v165.12z" fill="none"></path><path d="M0,172v-172h172v172z" fill="none"></path><path d="M3.44,168.56v-165.12h165.12v165.12z" fill="none"></path><path d="M0,172v-172h172v172z" fill="none"></path><path d="M3.44,168.56v-165.12h165.12v165.12z" fill="none"></path><path d="M0,172v-172h172v172z" fill="none"></path><path d="M3.44,168.56v-165.12h165.12v165.12z" fill="none"></path><path d="M0,172v-172h172v172z" fill="none"></path><path d="M3.44,168.56v-165.12h165.12v165.12z" fill="none"></path><path d="M0,172v-172h172v172z" fill="none"></path><path d="M3.44,168.56v-165.12h165.12v165.12z" fill="none"></path><path d="M0,172v-172h172v172z" fill="none"></path><path d="M3.44,168.56v-165.12h165.12v165.12z" fill="none"></path><path d="M0,172v-172h172v172z" fill="none"></path><path d="M3.44,168.56v-165.12h165.12v165.12z" fill="none"></path><path d="M0,172v-172h172v172z" fill="none"></path><path d="M3.44,168.56v-165.12h165.12v165.12z" fill="none"></path><path d="M0,172v-172h172v172z" fill="none"></path><path d="M3.44,168.56v-165.12h165.12v165.12z" fill="none"></path><path d="M0,172v-172h172v172z" fill="none"></path><path d="M3.44,168.56v-165.12h165.12v165.12z" fill="none"></path><path d="M0,172v-172h172v172z" fill="none"></path><path d="M3.44,168.56v-165.12h165.12v165.12z" fill="none"></path><path d="M0,172v-172h172v172z" fill="none"></path><path d="M3.44,168.56v-165.12h165.12v165.12z" fill="none"></path><path d="M0,172v-172h172v172z" fill="none"></path><path d="M3.44,168.56v-165.12h165.12v165.12z" fill="none"></path><path d="M0,172v-172h172v172z" fill="none"></path><path d="M3.44,168.56v-165.12h165.12v165.12z" fill="none"></path><path d="M0,172v-172h172v172z" fill="none"></path><path d="M3.44,168.56v-165.12h165.12v165.12z" fill="none"></path><path d="M0,172v-172h172v172z" fill="none"></path><path d="M3.44,168.56v-165.12h165.12v165.12z" fill="none"></path></g></svg>
